PathFileType	4	(X/Y/Z)	C:\Users\Basilio\Documents\Thesis Gigler\squatting_fais\c3dfiles\047\SJ_pre5\markers_experimental.trc
DataRate	CameraRate	NumFrames	NumMarkers	Units	OrigDataRate	OrigDataStartFrame	OrigNumFrames
200.000000	200.000000	4	61	mm	200.000000	522	1393
Frame#	Time	FHD			LBHD			RBHD			C7			T10			CLAV			LSHO			LUUPA			LMUPA			LDUPA			LLEP			LMEP			LRAD			LUL			LRFIN			RSHO			RUPA1			RMUPA			RDUPA			RLEP			RMEP			RRAD			RUL			RUFIN			LASI			RASI			USACR			LSACR			RSACR			LTHI1			LTHI2			LTHI3			LTHI4			LLFC			LMFC			LTIB1			LTIB2			LTIB3			LTIB4			LLMAL			LMMAL			LMT1			LMT2			LMT5			RTHI			RTHI2			RTHI3			RTHI4			RLFC			RMFC			RTIB1			RTIB2			RTIB3			RTIB4			RLMAL			RMMAL			RHEE			RMT1			RMT2			RMT5			*60			
		X1	Y1	Z1	X2	Y2	Z2	X3	Y3	Z3	X4	Y4	Z4	X5	Y5	Z5	X6	Y6	Z6	X7	Y7	Z7	X8	Y8	Z8	X9	Y9	Z9	X10	Y10	Z10	X11	Y11	Z11	X12	Y12	Z12	X13	Y13	Z13	X14	Y14	Z14	X15	Y15	Z15	X16	Y16	Z16	X17	Y17	Z17	X18	Y18	Z18	X19	Y19	Z19	X20	Y20	Z20	X21	Y21	Z21	X22	Y22	Z22	X23	Y23	Z23	X24	Y24	Z24	X25	Y25	Z25	X26	Y26	Z26	X27	Y27	Z27	X28	Y28	Z28	X29	Y29	Z29	X30	Y30	Z30	X31	Y31	Z31	X32	Y32	Z32	X33	Y33	Z33	X34	Y34	Z34	X35	Y35	Z35	X36	Y36	Z36	X37	Y37	Z37	X38	Y38	Z38	X39	Y39	Z39	X40	Y40	Z40	X41	Y41	Z41	X42	Y42	Z42	X43	Y43	Z43	X44	Y44	Z44	X45	Y45	Z45	X46	Y46	Z46	X47	Y47	Z47	X48	Y48	Z48	X49	Y49	Z49	X50	Y50	Z50	X51	Y51	Z51	X52	Y52	Z52	X53	Y53	Z53	X54	Y54	Z54	X55	Y55	Z55	X56	Y56	Z56	X57	Y57	Z57	X58	Y58	Z58	X59	Y59	Z59	X60	Y60	Z60	X61	Y61	Z61	

523	2.61	223.8617553710938	1041.082153320313	-898.6463012695315	75.0602493286133	1114.413818359375	-975.540710449219	60.95605468750001	1126.15185546875	-827.2124633789065	-70.73240661621095	1021.738952636719	-905.8135986328127	-315.0644531250001	828.1370849609377	-903.9395141601565	0.1525914371013642	869.1082763671877	-901.246032714844	-30.03972244262696	943.835144042969	-1073.741455078125	-184.7399444580078	973.568786621094	-1178.828247070313	-181.2628631591797	932.4859619140627	-1210.131469726563	-235.4199676513672	956.3362426757815	-1224.773681640625	-283.6762695312501	913.8306274414065	-1266.9375	-337.9789428710938	927.7620849609377	-1185.880615234375	-335.4288635253907	719.1502075195314	-1106.0341796875	-328.2863464355469	673.2701416015626	-1168.321655273438	-285.7983398437501	678.4174804687501	-1075.296997070313	-34.67498016357423	960.5432128906252	-742.7330932617189	-201.848129272461	996.6157226562502	-637.7419433593751	-206.2878570556641	956.2288818359377	-609.4371337890626	-258.1807861328126	983.441345214844	-596.4152832031251	-310.3627929687501	941.195983886719	-558.5199584960939	-365.3176574707032	951.405700683594	-634.0444946289064	-308.5998229980469	733.4315185546876	-702.9865112304689	-316.3424987792969	694.2367553710939	-636.8275146484376	-273.7362365722657	676.8805541992189	-729.8660888671876	-378.5252075195313	579.2337036132814	-1020.251220703125	-365.7869262695313	573.6013793945314	-790.2965087890627	-443.5823059082032	756.3917846679689	-904.1350708007815	-473.4817199707032	743.3224487304689	-931.8771972656252	-472.0231933593751	741.1031494140626	-874.499206542969	-452.4992675781251	583.1824340820314	-1122.011962890625	-372.1750793457032	580.0471801757814	-1145.815673828125	-345.3029785156251	610.7304687500001	-1119.255493164063	-344.6356506347657	534.6158447265626	-1174.164306640625	-211.2145233154297	438.2334289550782	-1211.3447265625	-147.8189544677735	428.8203430175782	-1098.8681640625	-204.3417663574219	270.3521118164063	-1117.153442382813	-248.8021087646485	230.8642883300782	-1181.74462890625	-225.1212158203126	224.651351928711	-1142.595947265625	-268.7683715820313	164.3935241699219	-1102.841552734375	-360.1809082031251	92.57937622070314	-1134.905395507813	-322.7323608398438	106.3017730712891	-1052.199829101563	-207.8905944824219	64.58943939208986	-1101.836547851563	-217.1827697753907	64.24720001220705	-1145.355590820313	-267.6031494140626	43.27711868286134	-1182.135498046875	-421.897918701172	555.9354858398439	-657.0198364257814	-358.6565551757813	558.5245361328126	-637.1625366210939	-339.4985046386719	583.9885253906251	-645.7632446289064	-310.4246215820313	495.3377990722657	-612.5249023437501	-184.8023834228516	424.2828369140626	-598.5270385742189	-128.3260040283203	429.2482299804689	-719.7045898437501	-165.0076751708985	300.5401306152344	-629.6898193359376	-265.5578308105469	253.2038726806641	-618.7919311523439	-224.1254577636719	236.5407867431641	-629.5374755859376	-230.9284973144532	196.7615966796876	-673.3336181640626	-354.5627441406251	88.80447387695314	-683.6754760742189	-307.3784179687501	105.0121612548828	-764.1338500976564	-406.0466918945314	52.47047042846681	-751.5691528320314	-195.1877441406251	55.75027465820314	-715.5644531250001	-205.5684356689454	57.52750396728517	-671.9461059570314	-262.8860168457032	30.21522521972657	-625.5747070312501	nan	nan	nan	
524	2.615	223.8096313476563	1041.056640625	-898.3804931640627	75.18141937255861	1114.560424804688	-975.2886962890627	60.83924102783205	1126.233642578125	-826.749694824219	-70.72058105468751	1021.965454101563	-905.6529541015627	-316.0712890625001	828.243347167969	-903.8829345703127	0.163175642490387	869.1776123046877	-901.1671142578127	-30.03924751281739	943.991638183594	-1073.6025390625	-184.7245483398438	973.7503051757815	-1178.661010742188	-181.1246948242188	932.714782714844	-1210.06298828125	-235.4037170410157	956.4981689453127	-1224.652709960938	-283.6134033203126	913.927185058594	-1266.876708984375	-337.9908752441407	927.866638183594	-1185.753295898438	-335.4067687988282	719.2318115234376	-1105.911865234375	-328.2083435058594	673.3632812500001	-1168.258911132813	-285.7983703613282	678.4784545898439	-1075.209106445313	-34.70197677612305	960.6409912109377	-742.4689331054689	-201.8091583251954	996.6508789062502	-637.6309204101564	-206.222885131836	956.333435058594	-609.2711791992189	-258.1365356445313	983.6458740234377	-596.3728637695314	-310.3410949707032	941.2847900390627	-558.4791870117189	-365.3298034667969	951.5938110351565	-633.8519897460939	-308.5996704101563	733.5670776367189	-702.9168090820314	-316.3292236328126	694.4019165039064	-636.8060302734376	-273.6853027343751	677.0663452148439	-729.7320556640626	-376.1077575683594	579.0615844726564	-1018.189880371094	-365.3329772949219	575.2048950195314	-788.1150512695315	-443.5582580566407	756.5264282226564	-904.0066528320315	-473.0237426757814	743.0670776367189	-931.9122314453127	-472.1027221679689	741.2515258789064	-874.3276977539065	-452.4506225585939	583.3429565429689	-1121.933349609375	-372.1458740234376	580.1329956054689	-1145.743530273438	-345.2137145996094	610.8280639648439	-1119.18359375	-344.5488586425782	534.6870727539064	-1174.082763671875	-211.2488250732422	438.3451538085939	-1211.202392578125	-147.7803039550782	428.8861694335939	-1098.807495117188	-204.4736633300782	270.3017883300782	-1117.04052734375	-248.8433685302735	230.8752593994141	-1181.706420898438	-225.0041961669922	224.3253021240235	-1142.660034179688	-268.7561950683594	164.4110870361328	-1102.855346679688	-360.1473083496094	92.64659118652345	-1134.88525390625	-322.7622070312501	106.2787475585938	-1052.165771484375	-207.8776092529297	64.62108612060548	-1101.836791992188	-217.1446533203126	64.34851837158205	-1145.395874023438	-267.6693725585938	43.2451400756836	-1182.120849609375	-421.8903808593751	555.9815063476564	-656.9293212890626	-358.6937561035157	558.5606689453126	-637.0081787109376	-339.4961242675782	584.0574340820314	-645.6530761718751	-310.3551330566407	495.1953125000001	-612.0664672851564	-184.8664245605469	424.2425842285157	-598.4912109375001	-128.2354125976563	429.3078002929689	-719.7431030273439	-165.0069580078125	300.5379333496094	-629.7003784179689	-265.6157836914063	253.1934509277344	-618.7877807617189	-224.1422119140626	236.5678405761719	-629.5066528320314	-230.8850860595704	196.7567749023438	-673.2764282226564	-354.6161804199219	88.7748260498047	-683.6812133789064	-307.2319335937501	105.0416030883789	-764.1852416992189	-406.0049133300782	52.50412750244142	-751.5390014648439	-195.1564025878907	55.78029632568361	-715.6509399414064	-205.7899475097657	57.7091751098633	-672.0137329101564	-262.8861999511719	30.20979690551759	-625.5650024414064	nan	nan	nan	
525	2.62	223.8968963623047	1041.05615234375	-898.2000122070315	75.15483856201173	1114.73974609375	-975.0987548828127	60.88585281372072	1126.442504882813	-826.3657836914065	-70.74010467529298	1022.149108886719	-905.4659423828127	-315.8997802734376	828.443542480469	-903.7402954101565	0.1638344079256058	869.2368164062502	-901.067810058594	-30.03053092956544	944.224304199219	-1073.45947265625	-184.6721954345703	973.8092041015627	-1178.520385742188	-181.0506439208985	932.815368652344	-1209.978271484375	-235.2649536132813	956.633239746094	-1224.577392578125	-283.5059814453126	914.0394287109377	-1266.787353515625	-337.8959655761719	927.9954223632815	-1185.673706054688	-335.3280334472657	719.2374877929689	-1105.806518554688	-328.0700683593751	673.3969116210939	-1168.19775390625	-285.7210998535157	678.5656738281251	-1075.12939453125	-34.68902969360352	960.753845214844	-742.3479614257814	-201.7546844482422	996.717956542969	-637.4608154296876	-206.2064971923829	956.4102172851565	-609.0934448242189	-258.1847839355469	983.6926269531252	-596.1384887695314	-310.3579406738282	941.4266357421877	-558.3599243164064	-365.2643127441407	951.6963500976565	-633.7838134765626	-308.4936218261719	733.6683959960939	-702.8295898437501	-316.4125061035157	694.5363769531251	-636.5999145507814	-273.7071228027344	677.2190551757814	-729.6204223632814	-378.3320007324219	579.1113281250001	-1019.271728515625	-365.7607727050782	574.4158935546876	-789.319519042969	-443.6505737304689	756.6408081054689	-903.9738769531252	-473.4336853027345	743.4643554687501	-931.6364746093752	-472.0731201171876	741.4613037109376	-874.1719970703127	-452.436492919922	583.4848022460939	-1121.888793945313	-372.1249389648438	580.2587890625001	-1145.709228515625	-345.1599426269532	610.9643554687501	-1119.092163085938	-344.4386596679688	534.7960205078126	-1174.039672851563	-211.2381134033204	438.3377990722657	-1211.002075195313	-147.5550079345703	429.1810302734376	-1098.619262695313	-204.4709777832032	270.3574218750001	-1116.984741210938	-248.8449401855469	230.9236450195313	-1181.640258789063	-224.873519897461	224.4615020751954	-1142.6943359375	-268.7696533203126	164.39794921875	-1102.878051757813	-360.1272277832032	92.59685516357423	-1134.84912109375	-322.7361450195313	106.2381286621094	-1052.142700195313	-207.9327697753907	64.57268524169923	-1101.774291992188	-217.1770782470704	64.2760696411133	-1145.361328125	-267.6156616210938	43.23981094360352	-1182.140014648438	-421.8985595703126	555.9843750000001	-656.9303588867189	-358.6876220703126	558.6211547851564	-636.8549804687501	-339.5470581054688	584.1012573242189	-645.4755249023439	-310.4504394531251	495.263153076172	-611.9692993164064	-184.8221435546875	424.1997375488282	-598.7041625976564	-128.2442016601563	429.3037719726564	-719.7229614257814	-164.9765777587891	300.5708312988282	-629.7711791992189	-265.6633300781251	253.1524810791016	-618.7561645507814	-224.2176513671876	236.5549774169922	-629.4846191406251	-231.0176849365235	196.7413787841797	-673.1964111328126	-354.6081237792969	88.77027893066408	-683.7063598632814	-307.1388854980469	105.0754470825196	-764.1851806640626	-406.0171203613282	52.42323303222658	-751.5430908203126	-195.220687866211	55.7693328857422	-715.5890502929689	-205.8177795410157	57.6733856201172	-672.0039062500001	-262.9039306640626	30.15915679931641	-625.5796508789064	nan	nan	nan	
526	2.625	223.8052978515626	1040.954833984375	-897.7032470703127	75.13301086425783	1114.841796875	-974.878845214844	60.70000457763673	1126.539794921875	-825.5252685546877	-71.04689788818361	1021.996459960938	-904.7457275390627	-315.9390258789063	828.6229248046877	-903.6119384765627	0.1617256104946137	869.4448852539065	-901.0145263671877	-29.96886444091798	944.3121337890627	-1073.332397460938	-184.6199951171875	973.954040527344	-1178.396850585938	-180.8740997314453	933.0252075195315	-1209.984497070313	-235.2058563232422	956.7005004882815	-1224.470825195313	-283.4385986328126	914.0946044921877	-1266.68603515625	-337.8607482910157	928.073425292969	-1185.558715820313	-335.2611083984376	719.3095092773439	-1105.7626953125	-328.0775756835938	673.4135742187501	-1168.106811523438	-285.8068847656251	678.6127319335939	-1074.949829101563	-34.67614746093751	960.8435058593752	-741.9578247070314	-201.7057647705079	996.7561035156252	-637.3465576171876	-206.2080841064454	956.5316162109377	-609.0222167968751	-258.1210632324219	983.758972167969	-596.0369262695314	-310.5020141601563	941.6450805664065	-558.1527709960939	-365.3065795898438	951.786315917969	-633.6166381835939	-308.4578247070313	733.8145141601564	-702.7456054687501	-316.4577026367188	694.6229858398439	-636.4593505859376	-273.7236938476563	677.2843627929689	-729.4401245117189	-378.6919250488282	578.8490600585939	-1018.745239257813	-366.4487304687501	574.5501708984376	-788.7835693359377	-443.6395568847657	756.7753295898439	-903.870788574219	-473.4283447265626	743.6251220703126	-931.5289306640627	-472.1556701660157	741.7338867187501	-874.096374511719	-452.3880615234376	583.6854248046876	-1121.821044921875	-372.0594482421876	580.3945922851564	-1145.627197265625	-345.1177978515626	611.1151733398439	-1118.978759765625	-344.4416809082032	534.8547363281251	-1173.913818359375	-211.2238159179688	438.3938293457032	-1210.844116210938	-147.5048370361328	429.2401123046876	-1098.501586914063	-204.4580841064454	270.3627929687501	-1116.918823242188	-248.8345794677735	230.9716949462891	-1181.530517578125	-225.070785522461	224.7733306884766	-1142.547119140625	-268.7667541503907	164.4117889404297	-1102.8046875	-360.2144775390626	92.60244750976564	-1134.890991210938	-322.7624816894532	106.2076873779297	-1052.159301757813	-207.8664550781251	64.63079833984376	-1101.833984375	-217.3114929199219	64.22148895263673	-1145.237548828125	-267.7359924316407	43.29700469970704	-1182.0947265625	-421.8890991210939	556.0177612304689	-656.8509521484376	-358.7239074707032	558.6339111328126	-636.7664184570314	-339.5115661621094	584.1482543945314	-645.4154052734376	-310.4645996093751	495.2482910156251	-611.8877563476564	-184.8658905029297	424.1629333496095	-598.6352539062501	-128.322006225586	429.2992248535157	-719.5782470703126	-165.0237884521485	300.5596923828126	-629.7472534179689	-265.6488952636719	253.1701354980469	-618.7070312500001	-224.225814819336	236.5375366210938	-629.4531860351564	-231.0194396972657	196.7395019531251	-673.1812133789064	-354.6105651855469	88.75858306884767	-683.6823120117189	-307.1999816894532	105.0538101196289	-764.1760864257814	-406.0357971191407	52.18275451660158	-751.3886108398439	-195.1847839355469	55.78518676757814	-715.6221313476564	-205.8309478759766	57.70672988891603	-671.9891357421876	-262.9328918457032	30.19712829589844	-625.5432128906251	nan	nan	nan	
